# xmcd CD database file
#
# Track frame offsets:
#	150
#	25521
#	47036
#	69276
#	71592
#	95764
#	111517
#	133942
#	148544
#	173164
#
# Disc length: 2536 seconds
#
# Revision: 0
# Processed by: cddbd v1.5.2PL0 Copyright (c) Steve Scherf et al.
# Submitted via: CDex 1.70beta2
#
DISCID=8f09e60a
DTITLE=Crescent - Little Waves
DYEAR=2007
DGENRE=Polsk Punk
TTITLE0=Little waves
TTITLE1=Cup
TTITLE2=Nearly Ready
TTITLE3=Geese
TTITLE4=Hey, September
TTITLE5=Come into the shade
TTITLE6=Drift
TTITLE7=Birds came out of the trumpet
TTITLE8=Before
TTITLE9=Our river
EXTD=YEAR: 2007
EXTT0=
EXTT1=
EXTT2=
EXTT3=
EXTT4=
EXTT5=
EXTT6=
EXTT7=
EXTT8=
EXTT9=
PLAYORDER=
